<?xml version="1.0" encoding="utf-8"?>
<!-- Generator: Adobe Illustrator 25.4.1, SVG Export Plug-In . SVG Version: 6.00 Build 0)  -->
<svg version="1.1" id="Layer_1" xmlns="http://www.w3.org/2000/svg" xmlns:xlink="http://www.w3.org/1999/xlink" x="0px" y="0px"
	 viewBox="0 0 3543 3543" style="enable-background:new 0 0 3543 3543;" xml:space="preserve">
<style type="text/css">
	.st0{fill:#DDCBA3;enable-background:new    ;}
	.st1{fill:#DDCBA3;}
	.st2{fill:#1C383B;}
</style>
<g>
	<path class="st0" d="M669.5,2719.1c1.2,0.4,1.9,1.7,1.7,2.9c-2,9.8-5.2,20.9-9.6,33.2c-4.8,13.2-9.9,25.8-15.2,37.6
		c-5.3,11.8-10.3,21.8-14.9,29.9c-4.6,8-7.7,12.1-9.2,12.1c-5,0-11.4-1.6-19.3-4.9c-7.8-3.3-16.5-7.5-25.9-12.6
		c-9.4-5.2-18.9-11-28.5-17.5c-9.6-6.6-18.5-13.1-26.7-19.8c-8.2-6.7-15.2-13.2-21-19.5c-5.5-6.1-9.1-11.4-10.8-15.9
		c-0.1-0.4-0.2-0.8-0.1-1.2c0.3-2.8,2.5-9.3,6.6-19.5c4.4-11.2,9.5-23.2,15.2-36.2c5.8-13.1,11.7-25.1,17.8-36.2
		c5-9,9.1-15.2,12.3-18.4c1-1,2.7-1,3.8,0.1c5.9,6.4,13.4,13.6,22.5,21.5c10,8.6,20.9,17,32.8,25.3c11.9,8.2,24,16,36.2,23.3
		C648.6,2710,659.4,2715.3,669.5,2719.1z M729.3,2598c1-1.2,2.9-1.2,4,0.1c15.4,18.6,34.2,35.3,56.4,50c22.4,14.8,45.1,26.6,68,35.3
		c1.3,0.5,2,2,1.5,3.4c-7.7,20-14.6,36.8-20.6,50.5c-6.3,14.2-11.8,25.6-16.4,34.2c-4.6,8.6-8.3,14.8-11.2,18.7
		c-2.9,3.8-4.9,5.7-6,5.7c-3.1,0-7.9-1.2-14.4-3.7c-6.5-2.5-14-6-22.4-10.6c-8.4-4.6-17.3-9.9-26.7-15.8c-9.4-6-18.3-12.3-26.7-19
		c-8.4-6.7-15.9-13.7-22.4-21c-6.4-7.1-10.9-14.2-13.6-21.3c-0.1-0.4-0.2-0.8-0.2-1.2c0.3-3,2.1-8.8,5.4-17.4
		c3.6-9.4,8.1-19.8,13.2-31.3c5.2-11.5,10.8-22.7,17-33.6C719.5,2611.1,724.6,2603.6,729.3,2598z"/>
	<path class="st0" d="M822.4,1526c5.7,0,9.3,1.4,10.6,4.3c1.3,2.9,2,6,2,9.5c0,5.8-0.9,12.1-2.6,19c-1.7,6.9-3.7,14-6,21.3
		c-2.3,7.7-4.3,15.4-6,23.3c-1.7,7.9-2.6,15.4-2.6,22.7c0,15,3.7,26.7,11.2,35.4s17.3,15.5,29.6,20.7c12.3,5.2,26.4,9.3,42.6,12.4
		c15.7,3.5,31.9,7,48.6,10.6c16.7,3.6,33.2,8.3,49.7,14.1c16.5,5.7,31.4,13.8,44.9,24.1c23,18.4,38.3,39.7,46,63.8
		c7.7,24.1,11.5,50.4,11.5,78.8c0,21.9-1.5,47.4-4.6,76.7c-3.1,29.3-6.9,61.6-11.5,96.9c-6.5,49.1-18.3,95.2-35.3,138.6
		c-17.1,43.3-37.8,83.2-62.4,119.9c-24.5,36.6-52,69.5-82.5,98.6c-30.5,29.1-62.3,53.8-95.5,74.2c-33.2,20.3-66.9,35.9-101.2,46.8
		c-34.3,10.9-67.4,16.4-99.2,16.4c-47.9,0-89.7-9.3-125.3-27.9c-35.7-18.6-65.4-43.6-89.4-75c-24-31.5-41.9-67.8-53.7-109
		c-11.9-41.2-17.8-84.4-17.8-129.6c0-38.3,3-75.2,8.9-110.7c5.9-35.5,15.1-70.2,27.6-104.3c12.5-34.1,28.4-67.9,47.7-101.5
		c19.4-33.5,42.6-67.9,69.9-103.2c13-16.5,24.4-30.2,34.2-41.1c9.8-10.9,18.3-19.8,25.6-26.5c7.3-6.7,13.2-11.5,17.8-14.4
		c4.6-2.9,8.2-4.3,10.9-4.3c2.3,0,4.6,0.4,6.9,1.2c2.3,0.8,3.5,2.3,3.5,4.6c0,5.4-2.3,10.4-6.9,15c-36.4,41.8-66.3,81.2-89.7,118.1
		c-23.4,37-41.9,71.8-55.5,104.4s-23.1,63.1-28.4,91.4c-5.4,28.3-8,54.8-8,79.3c0,42.1,5.7,78.9,17.2,110.4
		c11.5,31.4,27.2,57.5,47.2,78.2c19.9,20.7,43.4,36.2,70.4,46.6c27,10.3,56,15.5,87.1,15.5c33.7,0,68.1-6.1,103.2-18.4
		c35.1-12.3,69-28.5,101.8-48.6c32.8-20.1,63.5-43.2,92.3-69.3c28.7-26.1,53.7-52.8,75-80.2c21.3-27.4,38.1-54.6,50.6-81.6
		c12.4-27.1,18.7-51.5,18.7-73.3c0-14.2-2.4-27.5-7.2-39.9c-4.8-12.4-12.7-23.8-23.6-34.2c-10.9-10.3-25.6-19.9-44-28.7
		c-18.4-8.8-41-17-67.8-24.7c-0.1,0-0.1,0-0.2,0c-23.7-5-45-11.2-63.7-18.7c-18.8-7.5-34.7-17-47.7-28.7c-13-11.7-23-26.3-29.9-43.7
		s-10.3-38.8-10.3-64.1c0-15.7,1.7-32.9,5.2-51.7c3.5-18.8,9-39.5,16.7-62.1c8.8-24.9,16.8-44,24.1-57.2
		C810.1,1532.6,816.6,1526,822.4,1526z"/>
	<path class="st0" d="M771.2,1643.9c0-3.9,1-10.4,2.9-19.6c2-9.2,4.6-19.8,8.1-31.6c3.5-11.9,7.6-24.5,12.4-38
		c4.8-13.4,10.1-26.6,15.8-39.7c6.1-16.9,15.9-34.7,29.3-53.5c13.4-18.8,29.3-37.3,47.7-55.5c18.4-18.2,38.8-35.8,61.2-52.9
		c22.4-17.1,45.8-32.5,70.2-46.3c24.3-13.8,49.2-25.6,74.7-35.3c24.9-9.5,49.1-16.1,72.8-19.6c1-0.2,1.9-0.9,2.1-1.9l0.4-1.8
		c0.2-0.7,0-1.4-0.3-2c-5.1-7.9-8.9-17.6-11.5-29.2c-2.7-12.1-4-23.1-4-33c0-18.4,4.4-39.4,13.2-62.9c8.6-23.1,22.2-49,40.8-77.8
		c0.7-1.1,2.1-1.5,3.2-1c1.5,0.7,2.8,1.4,4,2.4c1.7,1.4,3.2,4.1,4.3,8.3c6.1,20.3,16,36.6,29.6,48.9c13.6,12.3,28.8,22.5,45.7,30.8
		c16.9,8.2,34.3,15.2,52.3,21c18,5.7,34.4,12.3,49.1,19.5c14.8,7.3,26.9,16.1,36.5,26.5s14.4,23.9,14.4,40.8
		c0,13.8-2.2,28.7-6.6,44.6c-4.4,15.9-10.6,31.7-18.7,47.4c-8.1,15.7-17.7,30.7-29,45.1c-11,14-23.2,26.2-36.5,36.8
		c-0.7,0.5-1.6,0.7-2.5,0.4c-21.4-7.4-43.7-12.8-66.8-16.2c-23.6-3.4-49.1-5.2-76.7-5.2c-30.7,0-61,3.5-91.1,10.4
		c-30.1,6.9-59.7,16.9-88.8,29.9s-57.5,28.7-85.1,47.1c-27.6,18.4-53.9,39.1-78.8,62.1c-15,14.6-27.4,29.4-37.4,44.5
		s-18.2,30.5-24.7,46.3c-3.1,6.9-6.4,13.6-10.1,20.1c-3.6,6.5-8.3,9.8-14.1,9.8c-1.9,0-3.5-0.8-4.6-2.3c-1.1-1.5-2-3.4-2.6-5.5
		c-0.5-2.1-0.9-4.2-0.9-6.3C771.2,1647.3,771.2,1645.5,771.2,1643.9z"/>
	<path class="st0" d="M1352.8,2448.6c-1,0-2,0.6-2.4,1.6c-13.4,30.5-27.6,57.1-42.4,79.6c-15.2,22.9-30.3,43.3-45.4,61.1
		c-15.2,17.8-31.9,32.6-50.1,44.4c-18.3,11.7-37.2,21.3-56.8,28.9c-19.6,7.5-39.4,13.1-59.4,17c-20,3.8-39,7-57.1,9.4
		c-18.1,2.4-34.8,4.6-50.4,6.7c-15.5,1.6-28.7,3.8-39.6,6.7c-14,3.6-26.6,7.3-37.8,10.9c-11.3,3.2-18.4,4.9-21.5,4.9
		c-2.4,0-4.7-0.4-7-1.2c-2.3-0.8-3.5-2.5-3.5-4.9c0-2.5,2.9-5.3,8.7-8.5c5.4-3.2,10.2-6.4,14.4-9.6c0.1-0.1,0.1-0.1,0.2-0.2
		c93.5-55.1,170.8-106.8,232-154.9c60.8-48,105.3-93,133.2-134.9c0.3-0.4,0.4-0.9,0.4-1.5v-0.2c0-0.9-0.5-1.7-1.2-2.2
		c-21.3-13.7-40.2-31.2-56.8-52.4c-16.9-21.7-31.2-46.1-42.8-73.3c-11.6-27.1-20.5-56.6-26.5-88.4c-6-31.8-9-65.1-9-100
		c0-76.6,14.8-156.3,44.6-239.2c29.5-82.5,71.1-168.1,124.8-256.8c0.5-0.8,1.3-1.3,2.2-1.3h2.2c1.2,0,2.3,0.9,2.6,2.1
		c3.5,18.2,9.2,39,17.1,62.7c8.2,24.5,17.1,51,26.8,79.3c9.7,28.8,19.8,58.8,30.3,90c10.5,31.2,20,62.6,28.5,94.2
		s15.6,62.9,21.3,93.9s8.5,60.5,8.5,88.4c0,58.4-11.5,121.9-34.4,190.6c-0.3,0.9-0.1,1.9,0.6,2.6l2.8,2.9c0.5,0.5,1.2,0.8,1.9,0.8
		c40.7,0.4,66.3,21.7,76.8,63.8c0.1,0.4,0.1,0.9,0,1.3c-3.9,16.3-9.8,29.9-17.6,40.7c-8,10.9-17.7,19.8-29.1,26.4
		c-11.4,6.7-24.5,11.5-39,14.3c-14.6,2.9-30.2,4.3-46.9,4.3H1352.8z M1350.4,2293.3c0.5-0.2,0.8-0.6,1.1-1.1
		c6.4-11.6,11.6-24.5,15.6-38.8c4.1-14.6,6.1-32.6,6.1-54.1c0-25.1-2.7-51.5-8.2-79s-12.2-55.1-20.4-82.7
		c-8.2-27.6-17-54.7-26.5-81.5c-9.5-26.8-18.6-51.9-27.1-75.4c-8.6-23.5-15.8-44.9-21.6-64.1c-5.5-18.1-8.9-33.7-10.2-46.6
		c-0.1-1.3-1.3-2.3-2.6-2.3h-0.7c-1,0-1.9,0.6-2.3,1.4c-26.4,52.5-45.5,100.3-57.2,143.3c-11.8,43.4-17.7,83.5-17.7,120.4
		c0,35.3,4.5,68.1,13.7,98.5c9.1,30.4,21.5,57.1,37,80.3s33.4,41.9,53.6,56.5c19.9,14.4,40.8,23.5,62.6,27.2c0.6,0.1,1.1,0,1.7-0.3
		L1350.4,2293.3z"/>
	<path class="st0" d="M1782.1,2150.4c0,1.4-1.2,2.6-2.6,2.6c-19.6-0.3-37.5-4.5-53.9-12.4c-16.7-8.1-31.4-22.2-44.1-42.3
		c-0.5-0.8-1.3-1.2-2.2-1.2h-0.8c-1.4,0-2.5,1-2.6,2.4c-2,23.6-5,48-9.1,73.3c-4.3,26.1-10.5,52-18.6,77.5
		c-12.1,39.3-27.7,72.3-46.9,98.8c-19.2,26.5-39.9,48-62,64.5c-22.1,16.4-44.3,28.2-66.4,35.2c-22.1,7.1-42.1,10.6-60,10.6
		c-22.9,0-41.9-3.7-57.1-10.9c-15.9-8.5-27.5-20.4-34.7-35.5c-7.1-15.1-10.7-32.6-10.8-52.7c0-0.4,0.1-0.7,0.2-1
		c7.8-18.8,19.5-33.7,35-44.8c15.7-11.1,37.4-16.7,64.9-16.7c14,0,29.1-2.3,45.4-7c16.3-4.7,32.6-11.4,48.9-20.4
		c16.3-8.9,32-19.9,47.2-32.8c15.1-13,28.5-27.6,40.2-43.8c11.6-16.2,21-33.9,28-53.2c7-19.2,10.5-39.8,10.5-61.7
		c0-18.2-2.7-41.5-8.2-69.9c-5.4-28.4-12.3-59.3-20.7-92.7c-8.3-33.4-17.4-68.6-27.1-105.5c-9.7-36.5-18.8-72.2-27.1-107.3
		c-8.3-35.1-15.2-68.3-20.7-99.7c-5.4-31.4-8.1-58.7-8.1-81.8c0-20.7,4.3-45.4,13.1-74.2c8.6-28.1,22.4-60.9,41.5-98.4
		c0.7-1.4,2.4-1.8,3.7-1l1.9,1.2c0.9,0.6,1.4,1.6,1.2,2.6c-0.6,3.3-0.8,7-0.8,11.1c0,4.9,0,9.5,0,14c0,23.9,2.7,53,8.1,87.2
		c5.4,34.3,12.5,71.5,21.3,111.6c8.7,40.1,18.4,82.5,29.1,127.1c10.7,44.6,21.5,89.2,32.3,133.7c11.6,47,24.5,87.5,38.7,121.6
		c14.2,34,28.8,60.8,44,80.3c10.5,14.2,17.9,30.6,22.4,49.3c4.5,18.6,6.7,36.3,6.7,52.9V2150.4z"/>
	<path class="st0" d="M2499.6,1892.9c-10.5,0-20.4-2.4-29.7-7.3c-9-4.7-16.7-12.8-23.1-24.2c-0.5-0.8-1.3-1.3-2.3-1.3h-1.6
		c-0.9,0-1.8,0.5-2.3,1.3c-27.4,48.4-55.6,85.7-84.9,112.1c-29.5,26.5-59.2,39.8-89.1,39.8c-13.6,0-25.8-2.4-36.7-7.3
		c-10.9-4.9-21.2-10.4-30.9-16.4c-9.7-6.1-19-11.6-27.7-16.4s-17.4-7.3-25.9-7.3c-6.6,0-12.5,3.5-17.5,10.7
		c-5.1,7.1-10.2,16.5-15.4,28.3c-5.2,11.7-10.8,25.3-16.6,40.7c-5.8,15.4-12.8,31.3-21,47.7c-8.2,16.4-17.7,32.8-28.5,49.2
		c-10.9,16.4-23.7,31.7-38.4,45.9c-22.9,21.5-46.8,37.2-71.6,47.1c-24.8,9.9-51.1,14.9-78.6,14.9c-24.1,0-47.2-4.9-69.3-14.6
		c-22.1-9.7-42.8-24.3-62-43.8c-19.2-19.5-36.9-44.1-53-73.9s-30-64.8-41.6-104.9c-7.8-27.6-14.9-55.5-21.5-83.6
		c-6.6-28.2-12.2-54.4-16.9-78.7s-8.3-45.6-11.1-63.8c-2.7-18.2-4.1-31.2-4.1-38.9c0-19,1.2-37.7,3.5-55.9
		c2.3-17.5,5.6-33.9,10-49.2c0.3-1.1,1.3-1.9,2.5-1.9h3.8c0.8,0,1.5,0.4,2,1c11.3,13.8,20.2,26.8,26.6,38.9
		c6.6,12.4,11,23.8,13.4,34.3c1.2,5.3,3.1,13.8,5.8,25.5c2.7,11.8,6,25.3,9.9,40.7c3.9,15.4,8.2,32,12.8,49.8
		c4.7,17.8,9.5,35.5,14.6,52.9c9.7,34.8,20.4,64.5,32,89.1c11.6,24.5,24.8,44.4,39.6,59.6c14.8,15.2,31.6,26.2,50.4,33.1
		c18.8,6.9,40.3,10.3,64.4,10.3c14.8,0,30.4-3.5,46.9-10.3c16.5-6.9,32.8-16.5,48.9-28.6c16.1-12.2,31.6-26.9,46.3-44.1
		c14.8-17.3,28-36.2,39.6-56.9c8.5-14.6,16.9-31.2,25.1-49.8c7.8-19.1,15.6-36.9,23.6-53.5c7.9-16.6,16.1-30.7,24.4-42.2
		c8.3-11.6,17-17.4,25.9-17.4c7.4,0,14.7,3.5,22.1,10.4c7.4,7.3,15.7,15.2,25.1,23.7c9.3,8.5,20.3,16.3,32.9,23.4
		c12.6,7.1,27.8,10.6,45.7,10.6c13.6,0,27.9-4.4,43.1-13.4c15.1-8.9,31.4-23.1,48.9-42.6c7.4-8.5,13.9-18.1,19.5-28.9
		c5.6-10.7,10.8-22.2,15.4-34.3c4.7-12.2,8.8-24.7,12.5-37.7c3.7-13,7.3-25.9,10.8-38.9c3.1-10.9,6.2-19.8,9.3-26.4
		c3.1-6.7,7.4-10,12.8-10c5.4,0,9.1,2,11,6.1c2,4.1,2.9,8.5,2.9,13.4c0,7.3-0.6,14.8-1.8,22.5c-1.2,8.1-1.8,15.2-1.8,21.3
		c0,17.8,4.3,30.4,12.8,37.7c8.5,7.3,20.2,10.9,35,10.9c12.4,0,25.3-3.1,38.7-9.4c13.4-6.3,27.7-17.3,42.8-33.1
		c9.3-9.7,16.9-19.3,22.7-28.9c5.8-9.5,8.7-19.8,8.7-30.7c0-13-1.7-26.9-4.9-41.9c-3.3-14.8-9.2-31.6-17.9-50.7
		c-0.3-0.6-0.3-1.4-0.1-2c6.9-17.5,15.2-36.5,24.9-57c9.7-20.5,21.2-42.4,34.5-65.9c0.5-0.8,1.3-1.3,2.3-1.3l0,0
		c1.2,0,2.2,0.8,2.5,1.9c6.3,23.2,11.3,45.6,14.9,67.1c3.7,22.1,5.6,43.3,5.6,63.5c0,24.3-2.7,45.4-8.2,63.2
		c-5.4,18.3-9.3,33.7-11.6,46.2c-7.8,43-17.9,80.2-30.3,111.6c-12.4,31.4-25.9,57.5-40.5,78.1c-14.6,20.6-29.7,35.9-45.4,45.9
		C2529.6,1887.9,2514.3,1892.9,2499.6,1892.9z"/>
</g>
<path class="st1" d="M2411.6,676.7c0,0-138.5,433.9-154.8,524.9c-16.3,91-30.3,162.7,0,219.9c30.3,57.1,86.4,67.2,123.4,24.6
	c37-42.6,65-179.4,59.4-191.8c0,0-53.8,51.6-59.4,56.1c-5.6,4.5-51.6,43.7-56.1-9c-4.5-52.7,11.2-181.7,21.3-250.1
	S2411.6,676.7,2411.6,676.7z"/>
<path class="st2" d="M2200.1,1064.3"/>
<path class="st1" d="M2821.5,2731.4h3.9l20.7-57.2c0,0,11.2-40.4-16.8-56.1c-28-15.7-103.2-26.9-141.3-6.2s-51,43.2-60.6,63.9
	c-9.5,20.7-23,57.8-23,84.1c0,26.4,1.1,48.8,22.4,66.2c21.3,17.4,58.9,37,68.4,36.4c0,0-49.3,86.9-40.4,113.3c0,0,5.6,12.3,19.6-6.7
	s44.3-66.2,108.2-88c63.9-21.9,115-53.8,115-53.8s25.2-7.3,44.3-58.3c0,0,17.4-31.4,28.6-38.1s2.2-18.5-6.7-12.3
	c-9,6.2-71.8,37-92,44.3c-20.2,7.3-47.7,21.3-70.1,23.6c-22.4,2.2-39.8,11.2-83.6-3.9s-62.8-45.4-62.8-45.4s-13.5-28.6,14-42.6
	c27.5-14,62.2-14,62.2-14s52.7-0.4,67.9,19.1c15.1,19.6,15.1,30.8,15.1,30.8L2821.5,2731.4z"/>
<path class="st1" d="M3038.5,2876.1l-3.9,51c0,0-233.3,111.6-273.7,134.6c-40.4,23-285.4,156.5-285.4,156.5l4.5-50.5
	c0,0,199.6-111,258.5-142.4S3038.5,2876.1,3038.5,2876.1z"/>
<path class="st1" d="M2003,1464.5c0,0-2.2-16.8,7.1-3.4c9.3,13.5,32.9,63.2,37.8,82.6c4.9,19.4,3.2,39.9-3.4,48.6
	c-6.6,8.7-9.3,13.5-22.4,13.5c0,0-0.4,16.1-12.7,23.2c-12.3,7.1-17.9,10.1-32.9,7.5c0,0,23.2,55.3,25,71.8
	c1.9,16.4,7.5,46.6,2.2,63.9c-5.2,17.3-21.3,44.5-39.6,54.6c-18.3,10.1-62.1,12.7-92.3-9.7c-30.3-22.4-57.9-40-91.6-115.9
	c-33.6-75.9-22.4-140.9-22.4-140.9s9.2-46.3,54.2-71.4c45-25.1,161.5-105.8,192.2-115.5c0,0-18.7,15-32.5,25.8s-40,29.9-57.2,42.6
	c-17.2,12.7-36.2,24.9-73.3,49s-87.2,90.8-64.3,170.1c22.9,79.3,76.6,111.3,76.6,111.3s42.2,39.7,110.3-1.8c0,0,41.5-45.2,7.1-104.3
	c0,0-25.8-43-70.3-62.2l-3.7-42.1l33.3,21.7c0,0,15,9.3,20.6,9.3c5.6,0,27.7,2.6,38.5-9.7c10.8-12.3,10.1-35.9,10.1-35.9l-11.2-28.8
	l3.4-7.5l17.2,38.1c0,0,4.9,6.4,13.8-1.5c9-7.9,3.4-29.2,3.4-29.2L2003,1464.5z"/>
<path class="st2" d="M1718.3,1445"/>
<g>
	<path class="st1" d="M1000.4,2057.5c-65.8-60.3-124.9-128.2-175.9-202.6c32.7,94.5,76,183.8,128.3,266.4
		C967.4,2104.2,989.5,2077.2,1000.4,2057.5z"/>
	<path class="st1" d="M2486.7,260.2C2741,477,2903,805.1,2903,1172.3c0,652.9-512.3,1182.1-1144.3,1182.1
		c-35.5,0-70.6-1.7-105.3-4.9c-19.7,35.1-105.6,168.3-267,149.8c0,0-6.8,11.5-20,28.1c182.1,109.5,393.7,172.2,619.6,172.2
		c681.3,0,1233.5-570.5,1233.5-1274.3C3219.6,905.5,2918.5,458.5,2486.7,260.2z"/>
	<path class="st1" d="M1098.6,2169.2c-5.2,31-12.9,73.3-21.7,117.1c40.9,46.1,85.1,89,132.1,128.5
		C1206.1,2411.9,1097.1,2285.5,1098.6,2169.2z"/>
</g>
</svg>
