<svg xmlns="http://www.w3.org/2000/svg" width="99.042" height="101.155" viewBox="0 0 99.042 101.155">
  <g id="Group_103" data-name="Group 103" transform="translate(-323.37 -260.17)">
    <g id="Group_101" data-name="Group 101" transform="translate(323.37 286.905)">
      <path id="Path_218" data-name="Path 218" d="M496.1,2601.246a.089.089,0,0,1,.057.1,7.975,7.975,0,0,1-.329,1.135q-.245.678-.521,1.288t-.511,1.022c-.157.275-.262.413-.315.413a1.826,1.826,0,0,1-.659-.167,9.606,9.606,0,0,1-.884-.432q-.481-.266-.974-.6t-.914-.679a6.771,6.771,0,0,1-.718-.668,1.792,1.792,0,0,1-.368-.544.083.083,0,0,1,0-.039,3.809,3.809,0,0,1,.225-.666q.227-.572.52-1.238t.61-1.239a3.026,3.026,0,0,1,.421-.628.088.088,0,0,1,.128,0,9.754,9.754,0,0,0,.768.734,13.933,13.933,0,0,0,1.121.866c.407.281.819.547,1.239.8A7.192,7.192,0,0,0,496.1,2601.246Zm2.045-4.142a.089.089,0,0,1,.136,0,8.682,8.682,0,0,0,1.929,1.708,11.833,11.833,0,0,0,2.325,1.207.089.089,0,0,1,.051.115q-.394,1.025-.7,1.726-.325.727-.56,1.17a5.517,5.517,0,0,1-.384.638c-.1.131-.168.2-.207.2a1.552,1.552,0,0,1-.491-.126,6.829,6.829,0,0,1-.767-.364q-.432-.237-.915-.542a10.755,10.755,0,0,1-.915-.648,6.364,6.364,0,0,1-.766-.718,2.362,2.362,0,0,1-.465-.73.1.1,0,0,1-.006-.041,2.858,2.858,0,0,1,.185-.6q.186-.484.452-1.071t.581-1.151A4.936,4.936,0,0,1,498.145,2597.1Z" transform="translate(-484.262 -2543.895)" fill="#ececec" style="isolation: isolate"/>
      <path id="Path_219" data-name="Path 219" d="M340.435,1526.011c.2,0,.316.049.363.147a.767.767,0,0,1,.069.324,2.732,2.732,0,0,1-.088.65q-.089.354-.207.727-.118.393-.206.8a3.618,3.618,0,0,0-.088.777,1.786,1.786,0,0,0,.383,1.21,2.691,2.691,0,0,0,1.013.708,7.249,7.249,0,0,0,1.455.422l1.661.364a14.7,14.7,0,0,1,1.7.482,5.432,5.432,0,0,1,1.534.825,4.562,4.562,0,0,1,1.573,2.183,8.856,8.856,0,0,1,.393,2.693,25.638,25.638,0,0,1-.157,2.624q-.157,1.5-.393,3.313a20.177,20.177,0,0,1-1.209,4.738,21.5,21.5,0,0,1-2.133,4.1,20.208,20.208,0,0,1-2.821,3.372,19.474,19.474,0,0,1-3.264,2.536,15.84,15.84,0,0,1-3.46,1.6,11.19,11.19,0,0,1-3.391.56,8.83,8.83,0,0,1-7.344-3.518,11.2,11.2,0,0,1-1.838-3.726,15.948,15.948,0,0,1-.609-4.433,22.905,22.905,0,0,1,.3-3.785,20,20,0,0,1,.944-3.568,22.151,22.151,0,0,1,1.632-3.471,31.961,31.961,0,0,1,2.389-3.529q.667-.845,1.169-1.405t.875-.905a4.557,4.557,0,0,1,.61-.491.793.793,0,0,1,.374-.147.747.747,0,0,1,.236.04.155.155,0,0,1,.119.157.714.714,0,0,1-.236.511,33.549,33.549,0,0,0-3.068,4.04,24.178,24.178,0,0,0-1.9,3.569,15.823,15.823,0,0,0-.973,3.127,14.627,14.627,0,0,0-.275,2.712,10.983,10.983,0,0,0,.589,3.775,7.536,7.536,0,0,0,1.613,2.674,6.584,6.584,0,0,0,2.408,1.592,8.262,8.262,0,0,0,2.979.531,10.653,10.653,0,0,0,3.529-.629,18,18,0,0,0,3.48-1.661,21.216,21.216,0,0,0,3.155-2.368,21.75,21.75,0,0,0,2.566-2.743,14.516,14.516,0,0,0,1.73-2.792,6.1,6.1,0,0,0,.639-2.508,3.785,3.785,0,0,0-.246-1.366,3.2,3.2,0,0,0-.806-1.17,5.847,5.847,0,0,0-1.5-.983,15,15,0,0,0-2.317-.845l-.006,0a13.189,13.189,0,0,1-2.179-.638,5.39,5.39,0,0,1-1.632-.983,3.9,3.9,0,0,1-1.022-1.494,5.979,5.979,0,0,1-.353-2.193,9.811,9.811,0,0,1,.177-1.769,15.371,15.371,0,0,1,.571-2.123,13.71,13.71,0,0,1,.825-1.956Q340.139,1526.011,340.435,1526.011Z" transform="translate(-323.37 -1509.459)" fill="#ececec" style="isolation: isolate"/>
      <path id="Path_220" data-name="Path 220" d="M771.236,1062.569a3.846,3.846,0,0,1,.1-.669q.1-.472.276-1.08t.422-1.3q.246-.687.541-1.356a7.75,7.75,0,0,1,1-1.828,14.659,14.659,0,0,1,1.632-1.9,21.848,21.848,0,0,1,4.493-3.392,18.789,18.789,0,0,1,2.555-1.208,11.83,11.83,0,0,1,2.488-.67.089.089,0,0,0,.073-.066l.015-.062a.088.088,0,0,0-.012-.069,3.055,3.055,0,0,1-.392-1,5.224,5.224,0,0,1-.138-1.13,6.234,6.234,0,0,1,.452-2.152,14.27,14.27,0,0,1,1.4-2.662.089.089,0,0,1,.11-.034.65.65,0,0,1,.137.081.556.556,0,0,1,.147.285,3.582,3.582,0,0,0,1.012,1.671,6.722,6.722,0,0,0,1.563,1.052,13.079,13.079,0,0,0,1.789.718,12.166,12.166,0,0,1,1.681.668,4.26,4.26,0,0,1,1.248.9,1.97,1.97,0,0,1,.492,1.4,5.74,5.74,0,0,1-.226,1.524,8.629,8.629,0,0,1-.64,1.623,9.5,9.5,0,0,1-.992,1.543,7.459,7.459,0,0,1-1.249,1.257.088.088,0,0,1-.084.014,12.61,12.61,0,0,0-2.284-.554,18.308,18.308,0,0,0-2.624-.176,13.882,13.882,0,0,0-3.117.354,16.389,16.389,0,0,0-3.038,1.023,19.835,19.835,0,0,0-2.91,1.611,21.83,21.83,0,0,0-2.693,2.123,9.217,9.217,0,0,0-1.279,1.524,9.49,9.49,0,0,0-.845,1.583q-.157.353-.344.688a.549.549,0,0,1-.481.334.189.189,0,0,1-.158-.078.593.593,0,0,1-.088-.187.861.861,0,0,1-.029-.215Z" transform="translate(-755.921 -1041.985)" fill="#ececec" style="isolation: isolate"/>
      <path id="Path_221" data-name="Path 221" d="M895.5,1619.479a.089.089,0,0,0-.081.053,18.3,18.3,0,0,1-1.451,2.722,22.165,22.165,0,0,1-1.553,2.089,7.853,7.853,0,0,1-1.714,1.519,10.641,10.641,0,0,1-1.942.987,12.219,12.219,0,0,1-2.031.582q-1.027.2-1.952.322l-1.722.228a9.228,9.228,0,0,0-1.354.229q-.717.186-1.295.374a3.731,3.731,0,0,1-.736.166.745.745,0,0,1-.24-.041.162.162,0,0,1-.119-.166c0-.084.1-.181.3-.292a5.489,5.489,0,0,0,.494-.33l.008,0a72.116,72.116,0,0,0,7.932-5.3A21.294,21.294,0,0,0,892.6,1618a.089.089,0,0,0,.015-.049v-.008a.088.088,0,0,0-.041-.074,7.814,7.814,0,0,1-1.941-1.793,11.259,11.259,0,0,1-1.465-2.505,14.443,14.443,0,0,1-.906-3.024,18.422,18.422,0,0,1-.308-3.421,24.206,24.206,0,0,1,1.523-8.18,49.134,49.134,0,0,1,4.266-8.782.09.09,0,0,1,.076-.043h.075a.088.088,0,0,1,.087.072,17.313,17.313,0,0,0,.584,2.142q.419,1.259.917,2.713l1.036,3.077q.537,1.6.976,3.223t.727,3.212a16.927,16.927,0,0,1,.289,3.025,20.679,20.679,0,0,1-1.178,6.518.089.089,0,0,0,.02.09l.1.1a.088.088,0,0,0,.064.027,2.538,2.538,0,0,1,2.626,2.181.088.088,0,0,1,0,.044,3.881,3.881,0,0,1-.6,1.393,3.242,3.242,0,0,1-1,.9,4.214,4.214,0,0,1-1.335.489,8.36,8.36,0,0,1-1.6.146Zm-.082-5.31a.088.088,0,0,0,.037-.036,6.179,6.179,0,0,0,.534-1.328,6.981,6.981,0,0,0,.209-1.851,14.008,14.008,0,0,0-.279-2.7q-.279-1.413-.7-2.827t-.907-2.785q-.488-1.372-.925-2.579t-.738-2.193a8.824,8.824,0,0,1-.351-1.594.088.088,0,0,0-.088-.079h-.024a.089.089,0,0,0-.08.049,26.809,26.809,0,0,0-1.957,4.9,15.675,15.675,0,0,0-.607,4.116,11.664,11.664,0,0,0,.467,3.368,10.088,10.088,0,0,0,1.265,2.745,7.542,7.542,0,0,0,1.832,1.933,5.1,5.1,0,0,0,2.142.93.091.091,0,0,0,.057-.009Z" transform="translate(-860.296 -1571.379)" fill="#ececec" style="isolation: isolate"/>
      <path id="Path_222" data-name="Path 222" d="M1326.43,1375.487a.089.089,0,0,1-.09.089,4.325,4.325,0,0,1-1.843-.425,3.774,3.774,0,0,1-1.507-1.445.088.088,0,0,0-.075-.041h-.028a.089.089,0,0,0-.089.081q-.1,1.21-.312,2.507a18.618,18.618,0,0,1-.637,2.65,11.438,11.438,0,0,1-1.6,3.378,10.037,10.037,0,0,1-2.121,2.2,7.856,7.856,0,0,1-2.27,1.205,6.8,6.8,0,0,1-2.052.363,4.5,4.5,0,0,1-1.951-.373,2.645,2.645,0,0,1-1.186-1.216,4.217,4.217,0,0,1-.368-1.8.092.092,0,0,1,.007-.036,3.447,3.447,0,0,1,1.2-1.531,3.788,3.788,0,0,1,2.221-.572,5.646,5.646,0,0,0,1.553-.239,8.19,8.19,0,0,0,1.673-.7,9.5,9.5,0,0,0,1.614-1.124,8.473,8.473,0,0,0,1.374-1.5,7.465,7.465,0,0,0,.956-1.819,6.13,6.13,0,0,0,.359-2.11,13.218,13.218,0,0,0-.279-2.39q-.279-1.455-.707-3.172t-.926-3.607q-.5-1.872-.927-3.669t-.707-3.409a16.706,16.706,0,0,1-.278-2.8,8.938,8.938,0,0,1,.448-2.536,21.1,21.1,0,0,1,1.42-3.364.089.089,0,0,1,.127-.036l.065.04a.089.089,0,0,1,.041.09,2.262,2.262,0,0,0-.029.38v.478a19.539,19.539,0,0,0,.279,2.983q.278,1.757.727,3.815t1,4.345q.547,2.287,1.106,4.573a28.992,28.992,0,0,0,1.323,4.158,12.047,12.047,0,0,0,1.5,2.745,4.62,4.62,0,0,1,.767,1.685,7.794,7.794,0,0,1,.229,1.808Z" transform="translate(-1276.547 -1337.582)" fill="#ececec" style="isolation: isolate"/>
      <path id="Path_223" data-name="Path 223" d="M1609.717,1417.278a2.168,2.168,0,0,1-1.016-.249,2,2,0,0,1-.791-.827.089.089,0,0,0-.078-.046h-.055a.089.089,0,0,0-.077.045,15.192,15.192,0,0,1-2.9,3.833,4.587,4.587,0,0,1-3.047,1.361,3.042,3.042,0,0,1-1.255-.25,8.62,8.62,0,0,1-1.056-.562q-.5-.313-.947-.562a1.812,1.812,0,0,0-.885-.25.732.732,0,0,0-.6.365,5.484,5.484,0,0,0-.528.967c-.179.4-.369.865-.567,1.392s-.438,1.071-.717,1.633a15.939,15.939,0,0,1-.976,1.683,9.392,9.392,0,0,1-1.314,1.57,7.881,7.881,0,0,1-2.45,1.611,7.194,7.194,0,0,1-2.689.509,5.822,5.822,0,0,1-2.37-.5,6.851,6.851,0,0,1-2.122-1.5,11.015,11.015,0,0,1-1.812-2.526,18.238,18.238,0,0,1-1.424-3.586q-.4-1.414-.737-2.858t-.577-2.693q-.24-1.248-.379-2.183a10.547,10.547,0,0,1-.14-1.331,15.387,15.387,0,0,1,.119-1.913,11.444,11.444,0,0,1,.341-1.682.09.09,0,0,1,.086-.064h.13a.089.089,0,0,1,.069.033,8.341,8.341,0,0,1,.909,1.329,4.744,4.744,0,0,1,.458,1.173q.059.272.2.874t.338,1.393q.2.79.439,1.7t.5,1.809a19.2,19.2,0,0,0,1.094,3.046,7.569,7.569,0,0,0,1.354,2.037,4.6,4.6,0,0,0,1.723,1.134,6.407,6.407,0,0,0,2.2.353,4.185,4.185,0,0,0,1.6-.353,7.857,7.857,0,0,0,1.673-.978,10.229,10.229,0,0,0,1.583-1.507,12.206,12.206,0,0,0,1.354-1.944,16.5,16.5,0,0,0,.857-1.7q.4-.978.806-1.83a9.444,9.444,0,0,1,.836-1.444,1.16,1.16,0,0,1,.887-.593,1.123,1.123,0,0,1,.757.354q.377.375.856.811a6.036,6.036,0,0,0,1.125.8,3.15,3.15,0,0,0,1.564.363,2.921,2.921,0,0,0,1.473-.457,7.452,7.452,0,0,0,1.673-1.456,5.181,5.181,0,0,0,.667-.987,11.088,11.088,0,0,0,.528-1.175q.239-.624.427-1.29t.369-1.33a6.315,6.315,0,0,1,.319-.9.489.489,0,0,1,.439-.343.38.38,0,0,1,.377.209,1.039,1.039,0,0,1,.1.457,5.179,5.179,0,0,1-.06.769,5.136,5.136,0,0,0-.06.728,1.621,1.621,0,0,0,.438,1.289,1.78,1.78,0,0,0,1.2.374,3.108,3.108,0,0,0,1.324-.323,5.16,5.16,0,0,0,1.464-1.133,5.862,5.862,0,0,0,.776-.987,1.978,1.978,0,0,0,.3-1.05,6.733,6.733,0,0,0-.169-1.434,8.924,8.924,0,0,0-.612-1.733.089.089,0,0,1,0-.07q.355-.9.853-1.949t1.179-2.252a.088.088,0,0,1,.077-.045h0a.09.09,0,0,1,.086.066,23.285,23.285,0,0,1,.509,2.295,13.213,13.213,0,0,1,.19,2.172,7.449,7.449,0,0,1-.28,2.162,15.8,15.8,0,0,0-.4,1.58,20.229,20.229,0,0,1-1.036,3.816,12.864,12.864,0,0,1-1.385,2.671,5.726,5.726,0,0,1-1.553,1.569A2.94,2.94,0,0,1,1609.717,1417.278Z" transform="translate(-1535.297 -1388.181)" fill="#ececec" style="isolation: isolate"/>
    </g>
    <path id="Path_224" data-name="Path 224" d="M2244.884,676.727s-4.734,14.837-5.293,17.949-1.035,5.565,0,7.519,2.953,2.3,4.219.842,2.225-6.136,2.033-6.558c0,0-1.84,1.764-2.033,1.918s-1.765,1.5-1.917-.307a54.38,54.38,0,0,1,.728-8.553C2242.966,687.2,2244.884,676.727,2244.884,676.727Z" transform="translate(-1850.104 -402.312)" fill="#ececec"/>
    <path id="Path_225" data-name="Path 225" d="M2200.085,1064.33" transform="translate(-1812.538 -776.66)" fill="#ececec"/>
    <path id="Path_226" data-name="Path 226" d="M2611.918,2605.111h.134l.71-1.956s.384-1.381-.575-1.918a6.407,6.407,0,0,0-4.833-.211,4.284,4.284,0,0,0-2.071,2.186,8.179,8.179,0,0,0-.786,2.876,2.562,2.562,0,0,0,.766,2.263,6.521,6.521,0,0,0,2.34,1.247s-1.687,2.972-1.381,3.873c0,0,.192.422.672-.23a7.4,7.4,0,0,1,3.7-3.01,21.288,21.288,0,0,0,3.931-1.841s.864-.25,1.515-1.995a5.088,5.088,0,0,1,.979-1.3c.383-.23.076-.632-.23-.422a30.635,30.635,0,0,1-3.145,1.515,11.346,11.346,0,0,1-2.4.805,4.79,4.79,0,0,1-2.857-.134,4.315,4.315,0,0,1-2.148-1.553,1.092,1.092,0,0,1,.48-1.458,5.39,5.39,0,0,1,2.129-.479s1.8-.014,2.319.655a2,2,0,0,1,.518,1.052Z" transform="translate(-2203.121 -2260.434)" fill="#ececec"/>
    <path id="Path_227" data-name="Path 227" d="M2494.774,2876.079l-.134,1.745s-7.978,3.816-9.358,4.6-9.76,5.352-9.76,5.352l.154-1.728s6.826-3.8,8.84-4.871S2494.774,2876.079,2494.774,2876.079Z" transform="translate(-2078.555 -2526.454)" fill="#ececec"/>
    <path id="Path_228" data-name="Path 228" d="M1764.4,1376.359s-.076-.576.243-.115a14.379,14.379,0,0,1,1.291,2.825,2.252,2.252,0,0,1-.115,1.662c-.226.3-.32.46-.767.46a1.009,1.009,0,0,1-.434.793,1.356,1.356,0,0,1-1.125.256,17.636,17.636,0,0,1,.857,2.454,6.57,6.57,0,0,1,.076,2.184,3.6,3.6,0,0,1-1.355,1.868,3.318,3.318,0,0,1-3.158-.332,7.959,7.959,0,0,1-3.132-3.963,9.153,9.153,0,0,1-.767-4.82,3.917,3.917,0,0,1,1.854-2.442c1.54-.859,5.522-3.618,6.571-3.95,0,0-.639.511-1.112.882s-1.368,1.023-1.956,1.457-1.239.851-2.505,1.675a5.408,5.408,0,0,0-2.2,5.817,6.7,6.7,0,0,0,2.62,3.807s1.445,1.357,3.772-.062a3.047,3.047,0,0,0,.243-3.567,5.886,5.886,0,0,0-2.4-2.128l-.128-1.439,1.138.741a2.448,2.448,0,0,0,.7.32c.192,0,.946.089,1.317-.332a2.091,2.091,0,0,0,.345-1.228l-.384-.984.115-.256.588,1.3s.166.217.473-.051.115-1,.115-1Z" transform="translate(-1383.59 -1075.007)" fill="#ececec"/>
    <path id="Path_229" data-name="Path 229" d="M1718.3,1445.011" transform="translate(-1347.226 -1144.324)" fill="#ececec"/>
    <g id="Group_102" data-name="Group 102" transform="translate(340.506 260.17)">
      <path id="Path_230" data-name="Path 230" d="M830.486,1861.822a40.246,40.246,0,0,1-6.015-6.927,44.025,44.025,0,0,0,4.387,9.111A15.766,15.766,0,0,0,830.486,1861.822Z" transform="translate(-824.471 -1800.362)" fill="#ececec"/>
      <path id="Path_231" data-name="Path 231" d="M1404.8,260.17a40.875,40.875,0,0,1,14.236,31.191c0,22.326-17.52,40.424-39.13,40.424q-1.821,0-3.6-.169c-.673,1.2-3.611,5.756-9.13,5.123a9.414,9.414,0,0,1-.685.96,40.964,40.964,0,0,0,21.188,5.888c23.3,0,42.182-19.511,42.182-43.578A43.664,43.664,0,0,0,1404.8,260.17Z" transform="translate(-1347.953 -260.17)" fill="#ececec"/>
      <path id="Path_232" data-name="Path 232" d="M1077.577,2169.206c-.179,1.061-.441,2.506-.743,4a43.129,43.129,0,0,0,4.517,4.395C1081.254,2177.5,1077.526,2173.183,1077.577,2169.206Z" transform="translate(-1068.204 -2103.923)" fill="#ececec"/>
    </g>
  </g>
</svg>
